<?xml version="1.0" encoding="utf-8"?>
<!-- Generator: Adobe Illustrator 16.0.0, SVG Export Plug-In . SVG Version: 6.00 Build 0)  -->
<!DOCTYPE svg PUBLIC "-//W3C//DTD SVG 1.1//EN" "http://www.w3.org/Graphics/SVG/1.1/DTD/svg11.dtd">
<svg version="1.1" id="Layer_1" xmlns="http://www.w3.org/2000/svg" xmlns:xlink="http://www.w3.org/1999/xlink" x="0px" y="0px"
	 width="32px" height="32px" viewBox="0 0 32 32" enable-background="new 0 0 32 32" xml:space="preserve">
<path fill-rule="evenodd" clip-rule="evenodd" d="M23.535,19.018v8.974h-2.482l0.002-7.05h-0.604v7.05h-2.48v-8.974h-0.957v-5.288
	c0-2.036,1.678-3.692,3.738-3.692s3.738,1.656,3.738,3.692v5.288H23.535z M23.531,13.729c0-1.514-1.246-2.745-2.779-2.745
	s-2.779,1.231-2.779,2.745v5.288h0.432h0.479h3.738H23.1h0.432V13.729z M20.752,9.848c-1.629,0-2.955-1.31-2.955-2.919
	s1.326-2.919,2.955-2.919c1.631,0,2.955,1.31,2.955,2.919S22.383,9.848,20.752,9.848z M22.668,6.377
	c-0.27-0.216-0.602-0.48-0.914-0.726l-2.979,1.007c-0.012,0.088-0.02,0.178-0.02,0.27c0,1.087,0.895,1.972,1.996,1.972
	s1.998-0.884,1.998-1.973C22.75,6.737,22.719,6.552,22.668,6.377z M12.797,23.178v4.795H11.84v-4.795h-0.959v4.795H9.922v-4.795
	H7.51l1.26-6.547H8.318H7.84V13.39c0-1.905,1.57-3.456,3.498-3.456s3.496,1.551,3.496,3.456v3.241h-0.477h-0.443l1.25,6.547H12.797z
	 M13.115,17.549H9.568l-0.9,4.682h5.34L13.115,17.549z M8.346,6.928c0-1.61,1.326-2.919,2.957-2.919c1.629,0,2.953,1.31,2.953,2.919
	v2.919h-5.91V6.928z M10.615,5.078c-0.521,0.19-0.943,0.586-1.156,1.091c0.418-0.105,0.91-0.373,1.35-0.688
	C10.732,5.339,10.668,5.202,10.615,5.078z M11.621,4.983c0.07,0.136,0.156,0.286,0.258,0.441l1.252,1.222
	c0.051,0.024,0.104,0.049,0.156,0.068C13.189,5.832,12.5,5.124,11.621,4.983z M11.303,8.9c0.838,0,1.557-0.515,1.854-1.241
	c-0.744-0.209-1.369-0.772-1.832-1.376c-0.514,0.364-1.266,0.8-2.006,0.872C9.432,8.136,10.277,8.901,11.303,8.9z"/>
</svg>
