<?xml version="1.0" encoding="utf-8"?>
<!-- Generator: Adobe Illustrator 16.0.0, SVG Export Plug-In . SVG Version: 6.00 Build 0)  -->
<!DOCTYPE svg PUBLIC "-//W3C//DTD SVG 1.1//EN" "http://www.w3.org/Graphics/SVG/1.1/DTD/svg11.dtd">
<svg version="1.1" id="Layer_1" xmlns="http://www.w3.org/2000/svg" xmlns:xlink="http://www.w3.org/1999/xlink" x="0px" y="0px"
	 width="32px" height="32px" viewBox="0 0 32 32" enable-background="new 0 0 32 32" xml:space="preserve">
<path d="M15.346,5.242c0.452-0.916,1.191-0.916,1.646,0l2.34,4.747c0.453,0.916,1.65,1.785,2.661,1.932l5.238,0.762
	c1.013,0.146,1.239,0.85,0.508,1.563l-3.789,3.695c-0.732,0.713-1.188,2.12-1.018,3.128l0.895,5.216
	c0.173,1.008-0.427,1.442-1.329,0.967l-4.686-2.463c-0.903-0.475-2.384-0.475-3.289,0L9.84,27.252
	c-0.905,0.476-1.503,0.041-1.332-0.967l0.895-5.216c0.173-1.008-0.284-2.415-1.016-3.128l-3.791-3.695
	c-0.731-0.713-0.502-1.417,0.508-1.563l5.238-0.762c1.012-0.147,2.208-1.017,2.661-1.932L15.346,5.242z"/>
</svg>
