<?xml version="1.0" encoding="utf-8"?>
<!-- Generator: Adobe Illustrator 16.0.0, SVG Export Plug-In . SVG Version: 6.00 Build 0)  -->
<!DOCTYPE svg PUBLIC "-//W3C//DTD SVG 1.1//EN" "http://www.w3.org/Graphics/SVG/1.1/DTD/svg11.dtd">
<svg version="1.1" id="Layer_1" xmlns="http://www.w3.org/2000/svg" xmlns:xlink="http://www.w3.org/1999/xlink" x="0px" y="0px"
	 width="32px" height="32px" viewBox="0 0 32 32" enable-background="new 0 0 32 32" xml:space="preserve">
<g>
	<g>
		<path fill-rule="evenodd" clip-rule="evenodd" d="M16,4C9.373,4,4,9.372,4,16s5.373,12,12,12s12-5.372,12-12S22.627,4,16,4z
			 M16,24.8c-4.859,0-8.799-3.94-8.799-8.8S11.141,7.2,16,7.2s8.801,3.94,8.801,8.8S20.859,24.8,16,24.8z M16,10.4
			c-3.094,0-5.6,2.506-5.6,5.6s2.506,5.6,5.6,5.6s5.602-2.506,5.602-5.6S19.094,10.4,16,10.4z"/>
	</g>
</g>
</svg>
