<?xml version="1.0" encoding="utf-8"?>
<!-- Generator: Adobe Illustrator 16.0.0, SVG Export Plug-In . SVG Version: 6.00 Build 0)  -->
<!DOCTYPE svg PUBLIC "-//W3C//DTD SVG 1.1//EN" "http://www.w3.org/Graphics/SVG/1.1/DTD/svg11.dtd">
<svg version="1.1" id="Layer_1" xmlns="http://www.w3.org/2000/svg" xmlns:xlink="http://www.w3.org/1999/xlink" x="0px" y="0px"
	 width="32px" height="32px" viewBox="0 0 32 32" enable-background="new 0 0 32 32" xml:space="preserve">
<path d="M16,4c-4.473,0-8.665,2.57-10.697,6.555c-2.087,4.093-1.586,9.174,1.226,12.801c2.787,3.595,7.484,5.322,11.938,4.391
	c4.37-0.915,7.952-4.316,9.107-8.627C29.59,11.604,23.791,4,16,4z M6.866,11.945c2.828-6.32,11.614-8.043,16.381-2.826
	c0.515,0.526,0.956,1.133,1.335,1.763c0.206,0.344,0.395,0.701,0.554,1.069c0.206,0.476-0.271,0.934-0.704,1.123
	c-0.959,0.418-2.182-0.354-3.117-0.618c-1.087-0.303-2.2-0.502-3.321-0.621c-1.838-0.18-3.71-0.119-5.526,0.216
	c-1.058,0.183-2.101,0.464-3.115,0.815c-0.605,0.209-1.162,0.485-1.797,0.208C7.105,12.878,6.651,12.431,6.866,11.945z
	 M14.01,23.753c0,0.95-0.898,1.666-1.821,1.461c-0.935-0.208-1.876-0.936-2.595-1.536c-1.088-0.909-3.962-3.775-2.379-5.256
	c0.641-0.6,1.637-0.417,2.439-0.422c1.262-0.008,1.511,1.294,2.276,2.08c0.556,0.571,1.736,0.92,2.011,1.679
	C14.156,22.352,14.01,23.142,14.01,23.753z M13,15.993c0-3.87,6-3.87,6,0C19,19.862,13,19.862,13,15.993z M25.171,19.996
	c-0.874,1.998-2.407,3.684-4.311,4.746c-0.845,0.472-1.903,0.837-2.575-0.123c-0.429-0.609-0.371-1.763-0.279-2.477
	c0.105-0.813,0.688-0.991,1.307-1.414c0.902-0.616,1.297-1.45,1.932-2.291c0.549-0.727,1.738-0.383,2.521-0.438
	C24.797,17.999,25.495,19.038,25.171,19.996C24.17,22.283,25.558,18.853,25.171,19.996z"/>
</svg>
