<?xml version="1.0" encoding="utf-8"?>
<!-- Generator: Adobe Illustrator 16.0.0, SVG Export Plug-In . SVG Version: 6.00 Build 0)  -->
<!DOCTYPE svg PUBLIC "-//W3C//DTD SVG 1.1//EN" "http://www.w3.org/Graphics/SVG/1.1/DTD/svg11.dtd">
<svg version="1.1" id="Layer_1" xmlns="http://www.w3.org/2000/svg" xmlns:xlink="http://www.w3.org/1999/xlink" x="0px" y="0px"
	 width="32px" height="32px" viewBox="0 0 32 32" enable-background="new 0 0 32 32" xml:space="preserve">
<path d="M22.436,17.66c-2.116,0-3.928,1.301-4.686,3.145c-2.144-1.043-4.904-3.096-7.634-7.138c2.036-0.655,3.508-2.564,3.508-4.817
	c0-2.795-2.266-5.062-5.063-5.062C5.768,3.788,3.5,6.054,3.5,8.85c0,0.825,0.198,1.603,0.549,2.289
	c-0.023,0.056-0.036,0.088-0.036,0.088s8.473,13.499,18.423,16.559c2.05,0.629,5.198-2.01,5.061-5.063
	C27.373,19.93,25.23,17.66,22.436,17.66z"/>
</svg>
