<?xml version="1.0" encoding="utf-8"?>
<!-- Generator: Adobe Illustrator 16.0.0, SVG Export Plug-In . SVG Version: 6.00 Build 0)  -->
<!DOCTYPE svg PUBLIC "-//W3C//DTD SVG 1.1//EN" "http://www.w3.org/Graphics/SVG/1.1/DTD/svg11.dtd">
<svg version="1.1" id="Layer_1" xmlns="http://www.w3.org/2000/svg" xmlns:xlink="http://www.w3.org/1999/xlink" x="0px" y="0px"
	 width="32px" height="32px" viewBox="0 0 32 32" enable-background="new 0 0 32 32" xml:space="preserve">
<path d="M23.46,25.958l-6.63-10.303l1.365-2.664h1.754c0.13,0,0.26-0.137,0.391-0.274l3.251-5.936
	c0.258-0.614-0.456-0.888-0.717-0.412l-2.925,4.985c-0.39,0.614-1.301,0.136-0.781-0.686l2.798-5.052
	c0.259-0.477-0.392-0.954-0.78-0.339l-2.796,4.915c-0.456,0.821-1.235,0.069-0.91-0.409l2.729-5.049
	c0.325-0.615-0.325-1.026-0.586-0.479l-3.444,5.732c-0.129,0.274-0.129,0.411-0.064,0.479l0.909,1.707l-1.171,1.844l-1.168-1.778
	c0,0,1.689-2.114-0.65-4.914C11.76,4.46,9.81,3.575,8.9,4.256c-0.718,0.545-0.977,3.208,0.521,6.211
	c1.493,3.073,3.572,2.662,4.094,2.596l1.366,2.525L8.575,25.893c-0.585,0.955,0,1.637,0.39,1.84
	c0.389,0.209,1.236,0.479,1.818-0.682l5.069-9.623l5.594,9.965c0.322,0.549,1.036,0.818,1.558,0.41
	C23.264,27.6,24.045,26.915,23.46,25.958"/>
</svg>
