<?xml version="1.0" encoding="utf-8"?>
<!-- Generator: Adobe Illustrator 16.0.0, SVG Export Plug-In . SVG Version: 6.00 Build 0)  -->
<!DOCTYPE svg PUBLIC "-//W3C//DTD SVG 1.1//EN" "http://www.w3.org/Graphics/SVG/1.1/DTD/svg11.dtd">
<svg version="1.1" id="Layer_1" xmlns="http://www.w3.org/2000/svg" xmlns:xlink="http://www.w3.org/1999/xlink" x="0px" y="0px"
	 width="32px" height="32px" viewBox="0 0 32 32" enable-background="new 0 0 32 32" xml:space="preserve">
<g>
	<g>
		<path d="M17.914,5.902c-1.048-1.04-3.201-0.887-4.325,0.229l-8.681,8.62c-1.158,1.15-1.218,3.109-0.127,4.191l1.044,1.036
			L18.956,6.938L17.914,5.902z M27.84,8.09l-1.158-1.151c-0.214-0.211-0.562-0.211-0.773,0c-0.213,0.211-0.213,0.556,0,0.768
			l0.773,0.766L23.59,11.54l-3.861-3.834L6.596,20.746l1.67,1.657c0.106,0.105,0.246,0.157,0.385,0.157
			c0.141,0,0.28-0.052,0.388-0.157c1.325-1.317,3.235-1.38,4.508-0.117c0.205,0.204,0.568,0.204,0.772,0l13.522-13.43
			C27.942,8.755,28,8.617,28,8.472C28,8.328,27.942,8.192,27.84,8.09z M9.677,22.788c-0.922,0.916-0.919,2.406,0.002,3.321
			c0.445,0.443,1.038,0.688,1.672,0.688c0.632,0,1.225-0.245,1.672-0.689c0.921-0.914,0.921-2.404,0-3.323
			C12.129,21.899,10.569,21.899,9.677,22.788z"/>
	</g>
</g>
</svg>
