<?xml version="1.0" encoding="utf-8"?>
<!-- Generator: Adobe Illustrator 16.0.0, SVG Export Plug-In . SVG Version: 6.00 Build 0)  -->
<!DOCTYPE svg PUBLIC "-//W3C//DTD SVG 1.1//EN" "http://www.w3.org/Graphics/SVG/1.1/DTD/svg11.dtd">
<svg version="1.1" id="Layer_1" xmlns="http://www.w3.org/2000/svg" xmlns:xlink="http://www.w3.org/1999/xlink" x="0px" y="0px"
	 width="32px" height="32px" viewBox="0 0 32 32" enable-background="new 0 0 32 32" xml:space="preserve">
<path fill-rule="evenodd" clip-rule="evenodd" d="M23.307,16.238c0.506,0,0.916,0.414,0.916,0.925v1.572
	c0,0.509-0.41,0.923-0.916,0.923H20.44c-0.505,0-0.916-0.414-0.916-0.923v-1.572c0-0.511,0.411-0.925,0.916-0.925H23.307z
	 M26.192,24.349H9.141l0.076-1.044h16.696c0.325,0,1.043-0.751,1.043-1.044v-9.392H5.043v-2.087l21.836-0.006V9.331
	c0-0.044-0.011-0.091-0.026-0.136c-0.063-0.264-0.37-0.517-0.66-0.517H4V7.651h22.192C27.19,7.651,28,8.385,28,9.289v13.422
	C28,23.615,27.19,24.349,26.192,24.349z M12.348,17.044H7.131V16h5.217V17.044z M13.391,20.174H8.174v-1.043h5.217V20.174z"/>
</svg>
