<?xml version="1.0" encoding="utf-8"?>
<!-- Generator: Adobe Illustrator 16.0.0, SVG Export Plug-In . SVG Version: 6.00 Build 0)  -->
<!DOCTYPE svg PUBLIC "-//W3C//DTD SVG 1.1//EN" "http://www.w3.org/Graphics/SVG/1.1/DTD/svg11.dtd">
<svg version="1.1" id="Layer_1" xmlns="http://www.w3.org/2000/svg" xmlns:xlink="http://www.w3.org/1999/xlink" x="0px" y="0px"
	 width="32px" height="32px" viewBox="0 0 32 32" enable-background="new 0 0 32 32" xml:space="preserve">
<path fill-rule="evenodd" clip-rule="evenodd" d="M15.766,14.505l4.887-2.027c1.396-0.598,2.326,1.562,0.965,2.193l-4.322,1.728
	l-0.897,2.426c-0.532,1.528-2.726,0.532-2.227-0.83l1.029-2.859C15.334,14.836,15.5,14.604,15.766,14.505z M16.696,26.8
	c-2.991,0-5.718-1.23-7.646-3.189l1.663-1.662c1.529,1.495,3.657,2.459,5.983,2.459c4.653,0,8.411-3.755,8.411-8.407
	s-3.758-8.407-8.411-8.407c-4.089,0-7.513,2.824-8.276,6.68l2.692-0.399l-3.823,5.35L3.5,13.873l2.526,0.366
	C6.823,9.088,11.279,5.2,16.696,5.2C22.647,5.2,27.5,10.019,27.5,16C27.5,21.948,22.647,26.8,16.696,26.8z"/>
</svg>
