<?xml version="1.0" encoding="utf-8"?>
<!-- Generator: Adobe Illustrator 16.0.0, SVG Export Plug-In . SVG Version: 6.00 Build 0)  -->
<!DOCTYPE svg PUBLIC "-//W3C//DTD SVG 1.1//EN" "http://www.w3.org/Graphics/SVG/1.1/DTD/svg11.dtd">
<svg version="1.1" id="Layer_1" xmlns="http://www.w3.org/2000/svg" xmlns:xlink="http://www.w3.org/1999/xlink" x="0px" y="0px"
	 width="32px" height="32px" viewBox="0 0 32 32" enable-background="new 0 0 32 32" xml:space="preserve">
<path fill-rule="evenodd" clip-rule="evenodd" d="M16,28c0,0-7.784-7.282-7.784-16c0-4.419,3.485-8,7.784-8s7.784,3.581,7.784,8
	C23.784,20.205,16,28,16,28z M16.001,5.678c-2.813,0-6.388,3.638-6.388,6.528c0,2.888,3.575,6.528,6.388,6.528
	c2.809,0,6.386-3.641,6.386-6.528C22.387,9.315,18.81,5.678,16.001,5.678z M20.039,11.688h-0.213l0.154,0.417
	c0.107,0.291,0.195,0.785,0.195,1.098v2.46c0,0.365-0.286,0.662-0.636,0.662s-0.635-0.297-0.635-0.662v-0.379h-5.811v0.379
	c0,0.365-0.286,0.662-0.636,0.662s-0.636-0.297-0.636-0.662v-2.46c0-0.313,0.089-0.807,0.196-1.098l0.153-0.417H11.96
	c-0.275,0-0.499-0.233-0.499-0.52s0.224-0.521,0.499-0.521h0.597l0.434-1.173c0.107-0.291,0.431-0.601,0.719-0.687
	c0,0,0.748-0.222,2.291-0.222s2.29,0.222,2.29,0.222c0.288,0.086,0.612,0.396,0.72,0.687l0.433,1.173h0.597
	c0.274,0,0.5,0.234,0.5,0.521S20.313,11.688,20.039,11.688z M12.55,13.156c0,0.286,0.224,0.52,0.5,0.52
	c0.275,0,0.499-0.233,0.499-0.52c0-0.288-0.224-0.521-0.499-0.521C12.773,12.635,12.55,12.868,12.55,13.156z M18.422,9.88
	c-0.033-0.098-0.144-0.178-0.243-0.178h-4.357c-0.101,0-0.21,0.08-0.245,0.178l-0.51,1.442c-0.035,0.098,0.02,0.178,0.119,0.178
	h5.629c0.1,0,0.152-0.08,0.118-0.178L18.422,9.88z M18.95,12.635c-0.275,0-0.499,0.233-0.499,0.521c0,0.287,0.224,0.52,0.499,0.52
	s0.5-0.232,0.5-0.52C19.45,12.868,19.226,12.635,18.95,12.635z"/>
</svg>
