<?xml version="1.0" encoding="utf-8"?>
<!-- Generator: Adobe Illustrator 16.0.0, SVG Export Plug-In . SVG Version: 6.00 Build 0)  -->
<!DOCTYPE svg PUBLIC "-//W3C//DTD SVG 1.1//EN" "http://www.w3.org/Graphics/SVG/1.1/DTD/svg11.dtd">
<svg version="1.1" id="Layer_1" xmlns="http://www.w3.org/2000/svg" xmlns:xlink="http://www.w3.org/1999/xlink" x="0px" y="0px"
	 width="32px" height="32px" viewBox="0 0 32 32" enable-background="new 0 0 32 32" xml:space="preserve">
<path fill-rule="evenodd" clip-rule="evenodd" d="M16.066,25C11.558,25,8,21.287,8,16.707c0-3.282,1.629-6.12,4.805-7.462v3.046
	c-1.682,1.046-2.305,2.637-2.305,4.416c0,3.153,2.272,5.709,5.377,5.709c3.104,0,5.529-2.556,5.529-5.709
	c0-1.783-0.756-3.375-2.25-4.423V9.241C22.332,10.583,24,13.422,24,16.707C24,21.287,20.576,25,16.066,25z M14.299,7h3.176v11.194
	h-3.176V7z"/>
</svg>
