<?xml version="1.0" encoding="utf-8"?>
<!-- Generator: Adobe Illustrator 16.0.0, SVG Export Plug-In . SVG Version: 6.00 Build 0)  -->
<!DOCTYPE svg PUBLIC "-//W3C//DTD SVG 1.1//EN" "http://www.w3.org/Graphics/SVG/1.1/DTD/svg11.dtd">
<svg version="1.1" id="Layer_1" xmlns="http://www.w3.org/2000/svg" xmlns:xlink="http://www.w3.org/1999/xlink" x="0px" y="0px"
	 width="32px" height="32px" viewBox="0 0 32 32" enable-background="new 0 0 32 32" xml:space="preserve">
<g>
	<g>
		<path d="M13.693,6.879h5.278c0.265,0,0.439-0.211,0.387-0.471L19.066,4.95c-0.051-0.259-0.311-0.471-0.574-0.471h-4.32
			c-0.264,0-0.521,0.212-0.574,0.471l-0.292,1.458C13.255,6.668,13.43,6.879,13.693,6.879z M28.333,14.441
			c0-0.727-0.594-1.32-1.32-1.32h-1.579l-1.144-2.977c-0.284-0.739-1.14-1.523-1.902-1.74c0,0-1.976-0.564-6.055-0.564
			c-4.08,0-6.057,0.564-6.057,0.564c-0.761,0.217-1.617,1-1.9,1.74L7.23,13.121H5.652c-0.728,0-1.319,0.593-1.319,1.32
			c0,0.726,0.592,1.32,1.319,1.32h0.563l-0.406,1.056c-0.283,0.739-0.518,1.992-0.518,2.784v6.24c0,0.924,0.758,1.68,1.681,1.68
			c0.924,0,1.681-0.756,1.681-1.68V24.88h15.359v0.961c0,0.924,0.757,1.68,1.682,1.68c0.924,0,1.681-0.756,1.681-1.68v-6.24
			c0-0.792-0.234-2.045-0.518-2.784l-0.407-1.056h0.563C27.739,15.761,28.333,15.167,28.333,14.441z M8.577,14.83l1.349-3.66
			c0.092-0.247,0.382-0.45,0.646-0.45h11.521c0.265,0,0.555,0.203,0.645,0.45l1.35,3.66c0.09,0.247-0.051,0.45-0.314,0.45H8.894
			C8.628,15.28,8.486,15.077,8.577,14.83z M8.532,20.8c-0.729,0-1.32-0.591-1.32-1.32c0-0.728,0.591-1.319,1.32-1.319
			c0.729,0,1.32,0.592,1.32,1.319C9.853,20.209,9.261,20.8,8.532,20.8z M24.133,20.8c-0.73,0-1.319-0.59-1.319-1.32
			c0-0.728,0.589-1.319,1.319-1.319c0.729,0,1.321,0.592,1.321,1.319C25.454,20.21,24.861,20.8,24.133,20.8z"/>
	</g>
</g>
</svg>
