<?xml version="1.0" encoding="utf-8"?>
<!-- Generator: Adobe Illustrator 16.0.0, SVG Export Plug-In . SVG Version: 6.00 Build 0)  -->
<!DOCTYPE svg PUBLIC "-//W3C//DTD SVG 1.1//EN" "http://www.w3.org/Graphics/SVG/1.1/DTD/svg11.dtd">
<svg version="1.1" id="Layer_1" xmlns="http://www.w3.org/2000/svg" xmlns:xlink="http://www.w3.org/1999/xlink" x="0px" y="0px"
	 width="32px" height="32px" viewBox="0 0 32 32" enable-background="new 0 0 32 32" xml:space="preserve">
<g>
	<path d="M24.262,25.243l-0.818-4.775c-0.102-0.591,0.208-1.546,0.638-1.964l3.469-3.383c0.607-0.591,0.834-1.302,0.623-1.95
		c-0.21-0.648-0.812-1.09-1.65-1.212l-4.794-0.697c-0.594-0.086-1.406-0.676-1.671-1.213l-2.144-4.347
		c-0.375-0.758-0.982-1.193-1.663-1.193c-0.683,0-1.289,0.435-1.664,1.195l-2.143,4.344c-0.266,0.538-1.079,1.128-1.672,1.214
		l-4.794,0.697c-0.839,0.122-1.441,0.564-1.651,1.213c-0.211,0.649,0.017,1.359,0.624,1.95l3.469,3.383
		c0.43,0.418,0.739,1.373,0.638,1.964l-0.819,4.776c-0.146,0.859,0.12,1.392,0.369,1.688c0.52,0.613,1.427,0.736,2.323,0.267
		l4.286-2.255c0.499-0.263,1.567-0.263,2.066,0l4.288,2.255c0.369,0.193,0.734,0.293,1.084,0.293c0.494,0,0.934-0.199,1.238-0.561
		C24.143,26.636,24.409,26.103,24.262,25.243z M21.442,20.812l0.759,4.425l-3.974-2.09c-1.087-0.57-2.868-0.57-3.955,0l-3.974,2.09
		l0.76-4.425c0.215-1.256-0.311-2.873-1.223-3.761l-3.214-3.135l4.441-0.646c1.26-0.183,2.636-1.182,3.2-2.324l1.987-4.029
		l1.986,4.029c0.563,1.142,1.939,2.141,3.2,2.324l4.441,0.646l-3.214,3.135C21.753,17.938,21.228,19.556,21.442,20.812z"/>
	<polygon points="32,27 29,27 29,24 27,24 27,27 24,27 24,29 27,29 27,32 29,32 29,29 32,29 	"/>
</g>
</svg>
