<?xml version="1.0" encoding="utf-8"?>
<!-- Generator: Adobe Illustrator 16.0.0, SVG Export Plug-In . SVG Version: 6.00 Build 0)  -->
<!DOCTYPE svg PUBLIC "-//W3C//DTD SVG 1.1//EN" "http://www.w3.org/Graphics/SVG/1.1/DTD/svg11.dtd">
<svg version="1.1" id="Layer_1" xmlns="http://www.w3.org/2000/svg" xmlns:xlink="http://www.w3.org/1999/xlink" x="0px" y="0px"
	 width="32px" height="32px" viewBox="0 0 32 32" enable-background="new 0 0 32 32" xml:space="preserve">
<path fill-rule="evenodd" clip-rule="evenodd" d="M25.725,20.861c-0.012,0.303-0.07,0.597-0.17,0.875l0.668,0.425l-0.795,1.199
	l-0.675-0.429c-0.219,0.2-0.47,0.369-0.745,0.5l0.168,0.771l-1.43,0.298l-0.169-0.771c-0.308-0.009-0.605-0.063-0.889-0.158
	l-0.438,0.66l-1.227-0.778l0.436-0.654c-0.209-0.214-0.385-0.46-0.521-0.731l-0.775,0.162l-0.305-1.398l0.767-0.159
	c0.008-0.307,0.064-0.604,0.163-0.887l-0.653-0.415l0.796-1.198l0.648,0.41c0.223-0.207,0.479-0.382,0.765-0.517l-0.161-0.736
	l1.431-0.298l0.16,0.736c0.316,0.01,0.623,0.067,0.914,0.168l0.421-0.634l1.227,0.777l-0.424,0.64
	c0.207,0.218,0.383,0.468,0.518,0.744l0.768-0.159L26.5,20.7L25.725,20.861z M23.687,20.537c-0.12-0.545-0.669-0.894-1.228-0.777
	s-0.914,0.653-0.796,1.199c0.12,0.546,0.669,0.894,1.228,0.777S23.805,21.084,23.687,20.537z M17.456,18.104l1.151,1.124
	l-2.107,2.06l-1.16-1.133c-0.523,0.307-1.095,0.54-1.703,0.686v1.607h-2.98v-1.606c-0.608-0.146-1.18-0.379-1.703-0.686
	l-1.159,1.133l-2.107-2.061l1.15-1.124c-0.321-0.514-0.565-1.075-0.72-1.674H4.5v-2.913h1.599c0.148-0.608,0.391-1.18,0.71-1.701
	l-1.122-1.098l2.107-2.06l1.114,1.089c0.535-0.32,1.122-0.563,1.748-0.713V7.5h2.98v1.535c0.626,0.15,1.213,0.393,1.749,0.713
	L16.5,8.659l2.107,2.06l-1.123,1.098c0.319,0.521,0.562,1.093,0.711,1.701h1.598v2.913h-1.617
	C18.021,17.029,17.777,17.591,17.456,18.104z M12.146,12.878c-1.164,0-2.107,0.923-2.107,2.06c0,1.138,0.943,2.061,2.107,2.061
	s2.107-0.922,2.107-2.061C14.254,13.8,13.311,12.878,12.146,12.878z"/>
</svg>
