<?xml version="1.0" encoding="utf-8"?>
<!-- Generator: Adobe Illustrator 16.0.0, SVG Export Plug-In . SVG Version: 6.00 Build 0)  -->
<!DOCTYPE svg PUBLIC "-//W3C//DTD SVG 1.1//EN" "http://www.w3.org/Graphics/SVG/1.1/DTD/svg11.dtd">
<svg version="1.1" id="Layer_1" xmlns="http://www.w3.org/2000/svg" xmlns:xlink="http://www.w3.org/1999/xlink" x="0px" y="0px"
	 width="32px" height="32px" viewBox="0 0 32 32" enable-background="new 0 0 32 32" xml:space="preserve">
<path d="M13.482,10.568c1.294,0,2.345-1.074,2.345-2.4c0-1.326-1.051-2.401-2.345-2.401c-1.297,0-2.347,1.075-2.347,2.401
	C11.136,9.494,12.186,10.568,13.482,10.568z M24.264,2.714c-1.111-0.526-2.355-0.192-3.236,1.756
	c-0.736,1.628-0.292,3.484,0.16,4.192c-0.04,0.526-0.041,1.048,0.035,1.541c0.315,2.044,0.556,3.708-0.864,6.097l-4.925-4.326
	c-0.403-0.538-1.037-0.886-1.751-0.886c-0.733,0-1.382,0.367-1.786,0.932l-4.965,4.361c-0.504,0.444-0.563,1.224-0.129,1.742
	c0.239,0.283,0.577,0.43,0.917,0.43c0.278,0,0.558-0.099,0.786-0.298l2.424-2.13l-1.068,5.46c0,0.479,0.385,0.925,0.928,1.29
	l-1.367,5.07c-0.178,0.658,0.199,1.338,0.842,1.52c0.106,0.031,0.215,0.045,0.322,0.045c0.527,0,1.014-0.359,1.162-0.906
	l1.301-4.823c0.232,0.044,0.45,0.069,0.634,0.069c0.188,0,0.415-0.027,0.653-0.072l1.301,4.826c0.147,0.547,0.633,0.906,1.163,0.906
	c0.105,0,0.214-0.015,0.321-0.045c0.643-0.182,1.02-0.861,0.842-1.52l-1.369-5.079c0.533-0.364,0.91-0.806,0.91-1.28l-1.07-5.48
	l2.445,2.149c0.229,0.2,0.508,0.298,0.786,0.298c0.34,0,0.679-0.146,0.916-0.431c0.389-0.465,0.362-1.128-0.009-1.583
	c1.528-2.521,1.285-4.252,0.955-6.385c-0.06-0.385-0.064-0.79-0.049-1.199c0.502,0.176,2.709-0.663,3.575-2.58
	C25.934,4.426,25.376,3.239,24.264,2.714z"/>
</svg>
