<?xml version="1.0" encoding="utf-8"?>
<!-- Generator: Adobe Illustrator 16.0.0, SVG Export Plug-In . SVG Version: 6.00 Build 0)  -->
<!DOCTYPE svg PUBLIC "-//W3C//DTD SVG 1.1//EN" "http://www.w3.org/Graphics/SVG/1.1/DTD/svg11.dtd">
<svg version="1.1" id="Layer_1" xmlns="http://www.w3.org/2000/svg" xmlns:xlink="http://www.w3.org/1999/xlink" x="0px" y="0px"
	 width="32px" height="32px" viewBox="0 0 32 32" enable-background="new 0 0 32 32" xml:space="preserve">
<g>
	<g>
		<path d="M16.298,15.362v-2.495c0-1.592,1.283-2.888,2.86-2.888h1.154c0.027-0.001,0.055-0.002,0.082-0.002h4.876V8.663
			c0,0,0-1.663-1.647-1.663H7.146C6.238,7,5.5,7.746,5.5,8.663v14.673C5.5,24.254,6.238,25,7.146,25h16.477
			c1.647,0,1.647-1.664,1.647-1.664V18.25h-6.112C17.581,18.25,16.298,16.955,16.298,15.362z M25.991,11.205L25.991,11.205
			l-0.004-0.001c-0.007,0-0.013-0.003-0.021-0.003h-5.572c-0.01,0-0.018,0.003-0.026,0.003h-1.21c-0.909,0-1.647,0.745-1.647,1.663
			v2.495c0,0.917,0.738,1.663,1.647,1.663h6.833v-0.004c0.507-0.018,0.509-0.535,0.509-0.535V11.74
			C26.5,11.74,26.498,11.223,25.991,11.205z M19.848,15.056c-0.515,0-0.932-0.422-0.932-0.941c0-0.519,0.417-0.939,0.932-0.939
			c0.514,0,0.932,0.421,0.932,0.939C20.779,14.634,20.361,15.056,19.848,15.056z"/>
	</g>
</g>
</svg>
