<?xml version="1.0" encoding="utf-8"?>
<!-- Generator: Adobe Illustrator 16.0.0, SVG Export Plug-In . SVG Version: 6.00 Build 0)  -->
<!DOCTYPE svg PUBLIC "-//W3C//DTD SVG 1.1//EN" "http://www.w3.org/Graphics/SVG/1.1/DTD/svg11.dtd">
<svg version="1.1" id="Layer_1" xmlns="http://www.w3.org/2000/svg" xmlns:xlink="http://www.w3.org/1999/xlink" x="0px" y="0px"
	 width="32px" height="32px" viewBox="0 0 32 32" enable-background="new 0 0 32 32" xml:space="preserve">
<path d="M13.173,14.063l-1.177,3.363l1.677-0.676l3.225-4.187l4.827-1.945c0.219-0.087,0.378-0.25,0.474-0.477
	c0.1-0.229,0.103-0.457,0.016-0.673l-0.016-0.041c-0.09-0.219-0.244-0.37-0.47-0.455c-0.222-0.083-0.445-0.082-0.663,0.005
	l-4.829,1.946L7.641,8.842L5.963,9.518l6.551,2.905L8.87,13.891l-3.414-0.823l-1.144,0.461l4.224,2.438L13.173,14.063z M4,23h24v-1
	H4V23z M22,19v-2h-2v4h8v-2H22z M22,13h-1v1h-0.642l-0.799,0.601L20.358,16h3.194l0.8-1.399L23.553,14H22V13z"/>
</svg>
