<?xml version="1.0" encoding="utf-8"?>
<!-- Generator: Adobe Illustrator 16.0.0, SVG Export Plug-In . SVG Version: 6.00 Build 0)  -->
<!DOCTYPE svg PUBLIC "-//W3C//DTD SVG 1.1//EN" "http://www.w3.org/Graphics/SVG/1.1/DTD/svg11.dtd">
<svg version="1.1" id="Layer_1" xmlns="http://www.w3.org/2000/svg" xmlns:xlink="http://www.w3.org/1999/xlink" x="0px" y="0px"
	 width="32px" height="32px" viewBox="0 0 32 32" enable-background="new 0 0 32 32" xml:space="preserve">
<g>
	<g>
		<path d="M27.501,25.297c0-3.28-3.845-4.578-7.182-5.086c-0.313,2.097-4.818,1.956-4.818,1.956s-4.507,0.141-4.817-1.956
			c-3.339,0.508-7.185,1.806-7.185,5.086c0,0-0.353,2.703,12.002,2.703S27.501,25.297,27.501,25.297z M15.597,20.778
			c3.711,0,6.728-3.763,6.728-8.388C22.324,7.764,19.308,4,15.597,4c-3.713,0-6.731,3.764-6.731,8.391
			C8.865,17.016,11.884,20.778,15.597,20.778z M12.721,10.482c1.601,0,1.507,2.462,5.647,2.369c1.644-0.036,2.43-0.055,2.813-0.063
			c-0.161,3.814-2.602,6.854-5.584,6.854c-2.876,0-5.247-2.818-5.563-6.433l1.275,0.117C11.309,13.326,11.121,10.482,12.721,10.482z
			"/>
	</g>
</g>
</svg>
